HIERARCHY
ROOT Hips
{
  OFFSET 13.6774 106.653 -34.4427
  CHANNELS 6 Xposition Yposition Zposition Zrotation Xrotation Yrotation
  JOINT ToSpine
  {
    OFFSET -2.69724 7.43032 -0.144315
    CHANNELS 3 Zrotation Xrotation Yrotation
    JOINT Spine
    {
      OFFSET -0.0310711 10.7595 1.96963
      CHANNELS 3 Zrotation Xrotation Yrotation
      JOINT Spine1
      {
        OFFSET 19.9056 3.91189 0.764692
        CHANNELS 3 Zrotation Xrotation Yrotation
        JOINT Neck
        {
          OFFSET 25.9749 7.03908 -0.130764
          CHANNELS 3 Zrotation Xrotation Yrotation
          JOINT Head
          {
            OFFSET 9.52751 0.295786 -0.907742
            CHANNELS 3 Zrotation Xrotation Yrotation
            End Site
            {
              OFFSET 16.4037 0.713936 2.7358
            }
          }
        }
        JOINT LeftShoulder
        {
          OFFSET 17.7449 4.33886 11.7777
          CHANNELS 3 Zrotation Xrotation Yrotation
          JOINT LeftArm
          {
            OFFSET 0.911315 1.27913 9.80584
            CHANNELS 3 Zrotation Xrotation Yrotation
            JOINT LeftForeArm
            {
              OFFSET 28.6126 1.18197 -3.53199
              CHANNELS 3 Zrotation Xrotation Yrotation
              JOINT LeftHand
              {
                OFFSET 27.5088 0.0218783 0.327423
                CHANNELS 3 Zrotation Xrotation Yrotation
                End Site
                {
                  OFFSET 18.6038 -0.000155887 0.382096
                }
              }
            }
          }
        }
        JOINT RightShoulder
        {
          OFFSET 17.1009 2.89543 -12.2328
          CHANNELS 3 Zrotation Xrotation Yrotation
          JOINT RightArm
          {
            OFFSET 1.4228 0.178766 -10.211
            CHANNELS 3 Zrotation Xrotation Yrotation
            JOINT RightForeArm
            {
              OFFSET 28.733 1.87905 2.64907
              CHANNELS 3 Zrotation Xrotation Yrotation
              JOINT RightHand
              {
                OFFSET 27.4588 0.290562 -0.101845
                CHANNELS 3 Zrotation Xrotation Yrotation
                End Site
                {
                  OFFSET 17.8396 -0.255518 -0.000602873
                }
              }
            }
          }
        }
      }
    }
  }
  JOINT LeftUpLeg
  {
    OFFSET -5.61296 -2.22332 -10.2353
    CHANNELS 3 Zrotation Xrotation Yrotation
    JOINT LeftLeg
    {
      OFFSET 2.56703 -44.7417 -7.93097
      CHANNELS 3 Zrotation Xrotation Yrotation
      JOINT LeftFoot
      {
        OFFSET 3.16933 -46.5642 -3.96578
        CHANNELS 3 Zrotation Xrotation Yrotation
        JOINT LeftToeBase
        {
          OFFSET 0.346054 -6.02161 12.8035
          CHANNELS 3 Zrotation Xrotation Yrotation
          End Site
          {
            OFFSET 0.134235 -1.35082 5.13018
          }
        }
      }
    }
  }
  JOINT RightUpLeg
  {
    OFFSET -5.7928 -1.72406 10.6446
    CHANNELS 3 Zrotation Xrotation Yrotation
    JOINT RightLeg
    {
      OFFSET -2.57161 -44.7178 -7.85259
      CHANNELS 3 Zrotation Xrotation Yrotation
      JOINT RightFoot
      {
        OFFSET -3.10148 -46.5936 -4.03391
        CHANNELS 3 Zrotation Xrotation Yrotation
        JOINT RightToeBase
        {
          OFFSET -0.0828122 -6.13587 12.8035
          CHANNELS 3 Zrotation Xrotation Yrotation
          End Site
          {
            OFFSET -0.131328 -1.35082 5.13018
          }
        }
      }
    }
  }
}
MOTION
Frames: 14
Frame Time: 0.03333333333333333
0.0000 93.1000 0.0000 68.1708 -37.7159 -11.2009 -71.0391 0.0303 87.9804 91.4693 68.4435 -4.3344 1.0483 15.5997 5.7738 -154.4097 23.3351 173.9796 -153.0168 61.8108 -177.0634 -0.2716 -13.6984 -32.8657 -78.9241 36.2682 -86.5666 12.3319 7.1460 -60.2332 -0.1553 0.3742 -0.2964 -2.1949 4.0655 44.2758 -74.2089 -32.9486 78.4094 6.7584 -9.8690 37.5354 0.3100 0.4596 -0.0936 -53.0463 4.7317 90.9333 -13.9514 73.7789 4.5915 -1.0461 1.7236 -0.6062 5.7500 -15.2079 10.2857 -37.9792 9.2980 82.7813 2.1107 44.8428 -2.0853 -8.8352 -14.4561 1.5265 2.3676 -6.6604 -14.1809 
0.0000 93.1000 0.0000 67.3107 -37.8479 -12.9335 -71.0162 0.0442 87.9765 89.7493 68.8772 -2.9296 1.0471 16.9450 5.3483 -153.0871 23.3487 174.9801 -152.9639 61.5364 -176.6250 -0.3689 -13.3682 -32.8697 -77.3468 40.8441 -84.5595 11.9800 9.1829 -55.2118 0.0536 0.4758 -0.3682 -2.1767 4.1279 44.0609 -76.3857 -33.9544 81.9492 10.0724 -11.2940 43.9499 0.1078 0.5499 0.0239 -46.1522 2.6833 90.1883 -10.7201 71.4419 2.9976 -0.1277 -1.5681 -1.1688 6.9090 -16.9033 10.5802 -43.6594 8.8066 83.9903 1.2322 40.3140 0.0156 -5.9475 -14.8718 1.1751 1.4316 -6.8133 -14.7785 
0.0000 93.1000 0.0000 66.3869 -39.0822 -14.5780 -71.0003 0.0159 87.9855 88.8881 70.0628 -1.9472 0.7626 19.0995 4.9024 -153.3202 23.3537 174.3041 -152.6740 61.9367 -176.4711 -0.1851 -12.7997 -33.0230 -74.9564 45.1707 -82.4907 10.3790 9.2858 -48.3327 0.0471 0.3037 -0.3603 -2.1324 4.0620 43.9735 -76.4001 -35.3448 85.8343 12.8598 -12.1511 49.6255 0.0730 0.3311 -0.1397 -40.7983 1.2501 90.3107 -7.1205 64.9020 1.1945 0.3598 -4.5815 -1.2331 7.2419 -16.8960 11.9489 -47.8678 8.0263 84.7874 1.4998 36.6404 2.2659 -5.9182 -13.9346 1.1102 1.6256 -7.9348 -16.3311 
0.0000 93.1000 0.0000 64.3200 -41.5422 -18.1414 -70.9926 -0.0480 88.0211 90.8581 72.0958 -3.8974 -0.9786 21.0663 3.9483 -152.8805 23.5892 174.0723 -153.9228 62.9835 -174.9347 0.1712 -12.8504 -33.7863 -73.4172 48.2257 -81.5693 9.6215 10.4651 -40.7718 0.0015 -0.0676 -0.2557 -2.0576 4.2595 43.1618 -76.1575 -36.2653 91.0493 15.5485 -11.9710 54.7902 0.0697 -0.0899 -0.0042 -35.3084 0.7447 91.7983 -3.9902 55.7089 0.3572 1.0544 -7.0262 -1.1950 7.0994 -16.5206 11.9985 -51.7207 7.2136 83.6778 -0.5426 33.8563 6.4090 -5.9794 -13.8707 1.0555 1.4552 -8.3987 -10.4696 
0.0000 93.1000 0.0000 61.1942 -43.9846 -20.1988 -70.9834 -0.0003 88.0240 92.1464 73.4267 -3.9352 -1.2449 22.6503 2.8022 -154.4230 23.7104 175.4886 -155.9884 63.1517 -174.4795 -0.0379 -12.8278 -34.0332 -74.1055 50.0980 -78.7272 7.2235 9.9571 -33.4248 0.0221 0.1876 -0.4933 -1.9844 4.7203 42.2831 -74.8607 -35.8018 97.5089 19.4065 -12.8588 59.8358 0.0078 0.1063 -0.2126 -32.6820 1.0692 92.3534 -2.1924 44.8365 -2.8160 -0.1619 -7.3099 -1.2350 7.7537 -17.7184 14.4217 -54.4446 6.3732 82.0556 -0.2352 31.9430 12.9275 -5.2398 -13.7070 0.9633 1.7474 -9.5762 -14.0368 
0.0000 93.1000 0.0000 58.3170 -46.0460 -23.4970 -70.9817 -0.0096 88.0483 92.0488 74.5354 -2.6540 -0.6765 23.9652 0.8138 -155.9522 22.9935 176.1908 -156.6746 63.1514 -172.2614 0.0529 -12.8764 -35.1456 -78.4884 51.0002 -71.5246 6.1173 14.3355 -27.3460 0.0007 0.1207 -0.3412 -1.8855 4.9245 41.9803 -75.0769 -35.4203 103.3929 21.9472 -12.2979 63.1651 0.0063 -0.0192 -0.1999 -30.2686 1.7746 93.7087 -2.1257 32.5930 -3.0823 -0.8914 -7.4891 -0.9827 7.2605 -17.1421 11.4378 -58.3508 4.9604 81.0926 0.5073 30.0388 13.6335 -6.0331 -14.7318 1.2727 1.0141 -8.7781 -6.6417 
0.0000 93.1000 0.0000 56.1811 -47.0368 -24.7081 -71.0062 0.0165 88.0658 96.8347 74.7380 -5.5640 -0.7231 25.6746 -1.1109 -157.6926 22.8146 177.2021 -157.9071 62.5126 -171.3077 -0.0887 -12.5852 -34.9795 -91.6111 48.9725 -58.2995 5.2231 24.7703 -23.3061 0.3182 0.2398 -0.3873 -1.8292 5.7765 40.1688 -75.9701 -34.9464 108.1707 23.3491 -12.1236 65.0244 -0.2401 0.0473 -0.2740 -28.5387 1.8344 92.8775 -0.8922 21.8016 -6.8794 -0.7316 -7.7173 -1.1238 8.3568 -18.1237 12.7926 -61.6690 3.9563 79.9188 0.0608 27.0803 15.6500 -5.7608 -15.9408 1.2012 1.1065 -8.1285 -5.7598 
0.0000 93.1000 0.0000 55.2026 -48.1868 -26.8275 -71.0262 -0.0112 88.0871 98.9550 75.7460 -7.2873 -0.6525 27.0018 -2.3252 -158.7827 22.7367 176.3663 -157.7429 62.0750 -172.7872 0.1412 -11.9066 -34.8404 -99.1844 46.2386 -50.2169 5.8702 33.7956 -21.0997 0.2710 0.0277 -0.3950 -1.7359 6.0438 39.2501 -75.2612 -34.3015 112.8471 22.2800 -10.9873 66.9667 -0.0359 -0.1721 -0.2188 -26.6838 2.8145 92.6703 -1.0311 17.4361 -7.3113 -0.2866 -7.2770 -1.0182 9.7543 -20.9691 14.5447 -65.0338 2.7997 79.4138 -1.3118 27.0633 16.9216 -5.8466 -17.1916 1.2448 1.2885 -10.2698 -5.9227 
0.0000 93.1000 0.0000 55.4016 -50.0060 -26.8973 -71.0217 -0.0219 88.0712 105.9968 76.4553 -14.2777 -1.3944 27.7994 -3.2001 -158.6736 22.3191 175.8042 -156.8779 60.9697 -174.9573 0.3939 -10.9034 -33.6135 -101.0396 45.0162 -45.3878 6.2154 38.0545 -19.2955 -0.0095 0.0106 -0.0772 -1.7634 6.1401 39.0959 -75.8145 -33.0570 116.1077 22.6531 -11.0531 66.9989 0.0011 -0.3115 -0.2072 -25.2178 3.1974 91.9047 -1.1296 16.5653 -6.3400 -0.6538 -7.8052 -1.0169 8.7485 -20.8601 14.0802 -68.1112 1.8816 79.5321 -2.3896 28.9750 19.8506 -7.2901 -17.5388 1.5486 1.9859 -15.0857 -8.0001 
0.0000 93.1000 0.0000 54.4790 -50.9736 -27.5929 -71.0193 0.0162 88.0736 110.0341 76.9674 -19.0408 -2.9060 28.0765 -3.3917 -158.5843 22.1448 176.3657 -157.0988 60.6940 -174.6999 0.2273 -10.1653 -32.9679 -102.1068 43.9243 -41.3496 6.8820 40.8595 -19.0228 -0.0916 0.1995 -0.4002 -1.8476 5.9753 38.2863 -76.0115 -32.9038 116.9776 22.5320 -10.9490 67.2105 -0.0453 -0.1321 -0.4335 -23.8013 3.1907 92.7820 -2.1140 22.1956 -5.3106 -0.8483 -8.3226 -1.2568 8.6256 -19.6465 13.8307 -69.7028 -0.0738 81.8662 -2.2797 32.0629 19.7202 -5.1077 -17.1239 1.5765 1.8811 -19.1292 -3.5711 
0.0000 93.1000 0.0000 54.4546 -49.9949 -28.7074 -71.0404 -0.0085 88.0951 106.8977 77.2543 -16.6853 -2.9218 28.7832 -3.2315 -158.3097 22.0910 175.0440 -156.2116 60.7186 -174.7559 0.3662 -9.7134 -32.0175 -102.7771 43.1142 -38.4272 7.0200 42.0198 -18.7232 -0.0001 0.0849 -0.2263 -1.7919 5.8941 38.2820 -76.8091 -31.9698 114.5115 21.6836 -9.8060 66.9270 -0.0278 -0.2652 -0.0606 -21.6846 3.0789 95.6891 -1.4757 29.4561 -4.8516 -1.4276 -3.1356 -0.5262 6.4542 -14.8639 11.4507 -72.5620 -0.9800 86.7555 -1.2803 33.9353 17.6927 -2.6276 -12.3349 0.9312 2.2777 -22.2199 -6.4244 
0.0000 93.1000 0.0000 55.4564 -48.1576 -29.5983 -71.0696 0.0029 88.1272 93.9239 77.3410 -8.2321 -2.6267 27.8868 -1.8418 -158.4051 21.9681 173.3591 -154.7563 61.2091 -176.8235 0.3407 -9.9854 -31.9023 -102.2663 42.7371 -38.4113 6.9695 41.9749 -17.9299 -0.1987 0.0731 -0.3151 -1.7745 5.9325 40.3629 -75.8817 -31.2643 110.5231 19.8765 -9.1693 66.1060 0.2458 -0.2378 -0.1052 -19.9533 1.1029 98.5679 -3.1909 37.6399 -7.0895 -1.7185 -0.1927 -0.0010 5.3818 -13.6549 12.2529 -72.8183 -2.8195 92.4405 2.5573 38.8668 7.1332 -3.9056 -1.8028 0.8028 4.9815 -32.3481 6.6732 
0.0000 93.1000 0.0000 58.6948 -46.1837 -28.6670 -71.1181 0.0608 88.1520 93.7414 76.7510 -9.3291 -2.1367 27.6063 -1.1231 -158.4046 21.8909 171.9751 -155.5840 61.0084 -176.5560 -0.0624 -10.9867 -31.9289 -101.1141 42.0964 -40.5379 7.5916 41.8751 -18.7600 0.3596 0.3603 -0.6114 -1.7107 5.9313 40.7759 -77.4999 -31.6137 104.2312 19.5033 -9.9020 64.9532 0.0394 0.1164 -0.2608 -21.4979 -1.0455 101.4052 -3.7250 43.5293 -11.8045 2.5145 -0.9356 -0.9946 3.1315 -11.9636 13.0578 -71.0643 -3.9603 91.8428 2.6662 46.8912 6.2570 -0.4686 9.7697 -0.3754 3.8228 -29.5728 7.3785 
0.0000 93.1000 0.0000 58.3992 -45.0382 -27.8577 -71.1183 0.0426 88.0936 94.9238 75.9149 -11.2085 -2.5878 26.8211 -0.8090 -157.2818 21.9567 172.9831 -155.0135 60.7712 -178.0051 -0.0881 -11.8429 -32.2343 -100.3893 44.0042 -42.7152 8.1527 40.1918 -19.8407 0.1067 0.3133 -0.1686 -1.7799 6.0435 41.2005 -75.3047 -32.0734 100.4338 17.6198 -10.9812 61.2655 -0.3123 0.0310 -0.0036 -24.7681 -1.8986 102.9814 -4.0485 44.5966 -10.6681 3.2108 -6.1727 -1.4187 0.3463 -4.8496 7.3760 -65.9236 -4.1655 93.1786 4.7465 56.3674 4.2977 5.0473 17.5665 -1.7527 2.0400 -20.4377 -15.5361 
